<svg xmlns="http://www.w3.org/2000/svg" xmlns:xlink="http://www.w3.org/1999/xlink" version="1.1" x="0px" y="0px" viewBox="0 0 100 100" style="enable-background:new 0 0 96 96;" xml:space="preserve"><g><path d="M88.7,48C88.7,25.5,70.5,7.3,48,7.3S7.3,25.5,7.3,48S25.5,88.7,48,88.7S88.7,70.5,88.7,48z M11.3,48    c0-20.3,16.5-36.7,36.7-36.7S84.7,27.7,84.7,48c0,10.3-4.2,19.6-11.1,26.2c-5.3-9.1-15-14.7-25.7-14.7c-10.6,0-20.4,5.7-25.7,14.7    C15.5,67.6,11.3,58.3,11.3,48z M25.4,76.9c4.5-8.2,13.2-13.4,22.6-13.4c9.5,0,18.1,5.1,22.6,13.4c-6.2,4.9-14.1,7.8-22.6,7.8    C39.5,84.7,31.6,81.8,25.4,76.9z"/><path d="M48,54.3c8.8,0,16-7.2,16-16s-7.2-16-16-16s-16,7.2-16,16S39.2,54.3,48,54.3z M48,26.3c6.6,0,12,5.4,12,12s-5.4,12-12,12    s-12-5.4-12-12S41.4,26.3,48,26.3z"/></g></svg>