<?xml version="1.0" encoding="UTF-8" standalone="no"?>
<svg
   xmlns:dc="http://purl.org/dc/elements/1.1/"
   xmlns:cc="http://creativecommons.org/ns#"
   xmlns:rdf="http://www.w3.org/1999/02/22-rdf-syntax-ns#"
   xmlns:svg="http://www.w3.org/2000/svg"
   xmlns="http://www.w3.org/2000/svg"
   xmlns:sodipodi="http://sodipodi.sourceforge.net/DTD/sodipodi-0.dtd"
   xmlns:inkscape="http://www.inkscape.org/namespaces/inkscape"
   version="1.1"
   x="0px"
   y="0px"
   viewBox="0 0 90 89.800789"
   xml:space="preserve"
   id="svg2"
   inkscape:version="0.91 r13725"
   sodipodi:docname="noun_1237112_cc.svg"
   width="90"
   height="89.800789"><metadata
     id="metadata14"><rdf:RDF><cc:Work
         rdf:about=""><dc:format>image/svg+xml</dc:format><dc:type
           rdf:resource="http://purl.org/dc/dcmitype/StillImage" /><dc:title></dc:title></cc:Work></rdf:RDF></metadata><defs
     id="defs12" /><sodipodi:namedview
     pagecolor="#ffffff"
     bordercolor="#666666"
     borderopacity="1"
     objecttolerance="10"
     gridtolerance="10"
     guidetolerance="10"
     inkscape:pageopacity="0"
     inkscape:pageshadow="2"
     inkscape:window-width="1320"
     inkscape:window-height="643"
     id="namedview10"
     showgrid="false"
     fit-margin-top="0"
     fit-margin-left="0"
     fit-margin-right="0"
     fit-margin-bottom="0"
     inkscape:zoom="5.3400704"
     inkscape:cx="26.395932"
     inkscape:cy="41.932641"
     inkscape:window-x="0"
     inkscape:window-y="0"
     inkscape:window-maximized="0"
     inkscape:current-layer="svg2" /><path
     id="path4"
     style="opacity:1;fill:#000000;fill-opacity:1"
     d="m 44.199219,7e-6 c -0.1,0 -0.09922,0.0016 -0.199219,0.101562 l -0.101562,0.09961 c -0.1,0 -0.09922,0.09961 -0.199219,0.09961 l -43.0000002,29 c -0.1,0.1 -0.2007813,0.199219 -0.3007812,0.199219 0,0 -0.099609,0.101172 -0.099609,0.201172 0,0.1 0.1,0.199218 0,0.199218 0,0.1 -0.099609,0.101172 -0.099609,0.201172 0,0.1 -0.099609,0.09922 -0.099609,0.199219 0,0.1 3.906e-4,0.09922 -0.099609,0.199219 l 0,0.201172 0,0.40039 0,9 0,0.398438 0,0.201172 c 0,0.1 -3.906e-4,0.09922 0.099609,0.199218 0.1,0.3 0.3,0.501172 0.5,0.701172 l 0.099609,0.09961 c 0.1,0.1 0.2007813,0.09922 0.3007812,0.199218 0,0 0.099609,-3.9e-4 0.099609,0.09961 0.1,-0.1 0.1988281,-0.09961 0.2988282,-0.09961 l 0.1015624,0 0.5,0 c 0.2000001,0 0.3000001,3.91e-4 0.5,-0.09961 l 0.099609,0 c 0.2,0.1 0.4,3.91e-4 0.5,-0.09961 l 3.9003904,-2.59961 0,36.699219 c -1.5999974,0 -2.9999996,1.3 -2.9999998,3 l 0,7 -2,0 c -1.0999999,0 -1.9999999,0.9 -2,2 0,1.1 0.9,2 2,2 l 86,0 c 1.1,0 2,-0.9 2,-2 0,-1.1 -0.9,-2 -2,-2 l -5,0 0,-45.900391 2.5,1.800782 c 0.2,0.1 0.3,0.199218 0.5,0.199218 l 0.09961,0 c 0.2,0 0.3,0.09961 0.5,0.09961 l 0.40039,0 0.09961,0 c 0.1,0 0.198828,-0.09961 0.298828,-0.09961 0,0 0.101562,3.91e-4 0.101562,-0.09961 0.1,0 0.199219,-0.09922 0.199219,-0.199219 l 0.09961,-0.101562 0.300782,-0.298828 c 0.1,-0.1 0.09922,-0.200782 0.199218,-0.300782 l 0,-0.09961 c 0,-0.1 -3.9e-4,-0.09922 0.09961,-0.199219 l 0,-0.201172 0,-0.09961 0,-0.300781 0,-9 0,-0.09961 0,-0.199218 c 0,-0.1 3.9e-4,-0.101172 -0.09961,-0.201172 l 0,-0.199219 c 0,-0.1 -0.09961,-0.09922 -0.09961,-0.199219 0,-0.1 -0.09961,-0.101172 -0.09961,-0.201172 l -0.09961,-0.09961 c 0,-0.1 -0.101562,-0.09922 -0.101562,-0.199219 l -0.199219,-0.201172 -0.09961,-0.09961 -41.701172,-29 c -0.1,0 -0.09922,-0.09961 -0.199219,-0.09961 l -0.09961,-0.09961 c -0.1,0 -0.101172,-0.0016 -0.201172,-0.101562 L 45.199216,0 44.999997,0 44.798825,0 44.599607,0 44.398435,0 44.199216,0 Z M 45,4.400397 l 39.699219,27.59961 0,4.101562 L 46.09961,9.400397 c -0.1,0 -0.101172,-0.09961 -0.201172,-0.09961 0,0 -0.09961,3.91e-4 -0.09961,-0.09961 -0.1,0 -0.199218,3.9e-4 -0.199218,-0.09961 l -0.09961,0 -0.201172,0 -0.199218,0 -0.201172,0 -0.09961,0 c -0.1,0 -0.199218,-3.9e-4 -0.199218,0.09961 l -0.201172,0 c 0,0 -0.09922,0.09961 -0.199219,0.09961 -0.1,0 -0.09922,0.09961 -0.199219,0.09961 L 4,36.300788 4,32.101569 45,4.400397 Z m 0,9.09961 34,23.701172 0,33.599609 -0.0098,0 0.002,0.002 c 0.111467,-0.02015 0.171485,-0.0074 0.197265,0.06445 0.006,-4.58e-4 0.0096,4.68e-4 0.01563,0 0.0086,0.08624 0.0086,0.17274 0.0078,0.259766 0.0967,0.178603 0.105552,0.294721 0.002,0.328125 1.55e-4,0.110526 1.13e-4,0.221503 0,0.332031 -3.99e-4,0.175359 -6e-5,0.350031 0,0.525391 -2e-6,0.0829 -1.8e-5,0.167098 0,0.25 l 0,0.21289 c 0.0033,0.146321 -0.02328,0.229086 -0.06445,0.306641 -0.004,0.112127 -0.04672,0.375176 -0.002,0.107422 0.0051,0.07475 -0.01632,0.141101 -0.02734,0.210937 0.02908,0.102794 0.05611,0.205446 0.08398,0.308594 0.01426,0.106752 0.03701,0.212778 0.04297,0.320313 0.01433,0.258585 -0.007,0.334686 -0.03516,0.566406 -0.0013,0.01048 -0.0026,0.02077 -0.0039,0.03125 9.87e-4,0.01007 0.005,0.01919 0.0059,0.0293 l 0,0.205078 c 1.1e-5,0.03558 0.03553,0.105368 0,0.107422 0.003,0.297306 -0.02903,0.360339 -0.214844,0.322265 l 0,2.488282 c 0.143491,-0.02241 0.1485,0.05284 0.148438,0.361328 l 0,0.01367 c 0.03377,0.002 10e-7,0.06772 0,0.101562 3e-6,0.07026 5e-5,0.140678 0,0.210938 -7.8e-5,0.177717 2.77e-4,0.355486 0,0.533203 -1.95e-4,0.01296 0.0021,0.02627 0,0.03906 0.0015,0.02495 0.0028,0.03391 0.0039,0.128907 -0.0029,0.217833 -0.02986,0.435627 0,0.652343 0.01857,0.184874 0.05133,0.468017 0.04492,0.644531 -0.027,0.743471 -0.02577,0.766871 -0.0293,0.671876 0.0093,0.04216 0.01872,0.08428 0.02539,0.126953 0.03785,0.242053 0.04024,0.475079 0.02734,0.71875 -0.01741,0.21481 -0.0069,0.429448 -0.0039,0.644531 -2.29e-4,0.130704 -0.0022,0.26187 -0.002,0.392578 3.54e-4,0.161104 3.1e-5,0.323271 0,0.484375 0.0051,0.218657 -0.08741,0.425313 -0.214844,0.611328 l 0,1.685547 -33,0 0,-7 c 0,-1.7 -1.3,-3 -3,-3 l -8.701172,0 0,-21 c 0,-5.5 -4.5,-10 -10,-10 -5.5,0 -10,4.5 -10,10 l 0,21 -3.298828,0 0,-39.400391 34,-22.90039 z m 0,6.5 c -4.4,0 -8,3.6 -8,8 0,4.4 3.6,8 8,8 4.4,0 8,-3.6 8,-8 0,-4.4 -3.6,-8 -8,-8 z m 0,4 c 2.2,0 4,1.8 4,4 0,2.2 -1.8,4 -4,4 -2.2,0 -4,-1.8 -4,-4 0,-2.2 1.8,-4 4,-4 z m 2,17.800781 c -1.6,0 -3,1.3 -3,3 l 0,20 c 0,1.6 1.4,3 3,3 l 26,0 c 1.7,0 3,-1.4 3,-3 l 0,-20 c 0,-1.7 -1.3,-3 -3,-3 l -26,0 z m 17.144532,2.949219 c 0.168096,-0.02397 0.338306,-0.0039 0.505859,0.0078 -0.09898,0.01759 0.287419,-0.01615 0.1875,0 0.11472,-0.01117 0.183651,0.0024 0.261719,0.05859 0.253254,0.01283 0.504915,0.0014 0.757812,0.04687 0.179437,0.03228 0.35418,0.08548 0.53125,0.128906 0.571254,0.253334 0.656577,0.293866 0.796875,0.38086 0.169572,-0.133222 0.386881,-0.118007 0.662109,0.18164 0.169264,-0.0069 0.296037,0.04228 0.419922,0.119141 -0.01419,-0.284253 0.07348,-0.184837 0.138672,0.06836 0.07579,-7.59e-4 0.150761,-0.0016 0.226563,-0.002 0.0089,0.01953 0.01482,0.04085 0.02344,0.06055 l 3.34375,0 0,2.261719 c 0.111739,0.112462 0.214822,0.257863 0.3125,0.507812 0.08303,0.212463 0.01082,0.450788 -0.02344,0.681641 0.01141,-0.03012 0.01775,-0.06297 0.03125,-0.0918 0.01325,-0.02831 -0.01023,0.06102 -0.01563,0.0918 -0.01003,0.02942 -0.02105,0.05853 -0.03125,0.08789 -4.49e-4,0.0051 -0.0016,0.01053 -0.002,0.01563 -0.0014,0.01886 -0.02701,0.07082 -0.02148,0.05273 0.007,-0.02303 0.01554,-0.0456 0.02344,-0.06836 0.0025,-0.02899 0.01127,-0.05855 0.01563,-0.08789 -0.08553,0.225824 -0.129673,0.475319 -0.289063,0.652344 l 0,13.896484 -1.726562,0 c -0.124878,0.05519 -0.249178,0.114296 -0.378906,0.15625 -0.04238,0.01371 -0.0883,-0.0063 -0.132813,-0.0078 -0.09931,-0.0033 -0.199463,-0.005 -0.298828,-0.0059 -0.115269,-9.61e-4 -0.230497,0.0059 -0.345703,0.002 -0.395522,-0.01352 -0.491017,-0.03741 -0.894532,-0.0918 -0.28255,-0.03001 -0.556205,-0.09466 -0.830078,-0.166015 -0.16144,3.84e-4 -0.322939,5.96e-4 -0.484375,0 -0.01662,0.0057 -0.07738,0.0044 -0.144531,0.002 -0.07389,-0.0014 -0.148763,0.0019 -0.222656,0.002 -0.06191,-3.45e-4 -0.123636,-9.7e-5 -0.185547,0 -0.07113,-8.2e-5 -0.141759,-3.1e-5 -0.212891,0 -0.06913,1.3e-5 -0.137905,3e-6 -0.207031,0 l -0.142578,0 -0.128906,0 -0.179688,0 c -0.06943,-0.01165 -0.223889,0.0037 -0.152343,-0.01367 -0.01695,-8.7e-5 -0.03383,-2.1e-5 -0.05078,0 -0.09063,0.01756 -0.188264,0.03985 -0.222656,0.02734 -0.06949,0.02587 -0.138001,0.05736 -0.210938,0.06836 -0.01876,0.0028 -0.03788,-0.0048 -0.05664,-0.0078 -0.06237,0.02559 -0.129678,0.05414 -0.222656,0.07422 -0.0593,0.01281 -0.120657,-0.01683 -0.179688,-0.03516 -0.0033,0.0017 -0.0087,0.0043 -0.01172,0.0059 0.0098,0.0036 0.01764,0.0015 0.01758,0.0078 -1.02e-4,0.0098 -0.01677,0.0026 -0.0293,0 -0.0159,0.008 -0.06656,0.0375 -0.06836,0.03711 -0.0085,-0.0019 -0.01348,-0.01074 -0.02148,-0.01367 -0.04999,0.03959 -0.111402,0.0608 -0.185547,0.0625 -0.04227,0.03217 -0.08617,0.05939 -0.140625,0.0625 -0.05734,0.0033 -0.115552,0.0053 -0.171875,-0.0059 -0.05038,-0.01004 -0.331225,-0.131994 -0.05664,-0.01367 0.107107,0.01512 -0.13208,0.0095 -0.162109,0.0078 -0.05653,-1.59e-4 -0.111398,0.0016 -0.167969,0 -0.07378,7.53e-4 -0.14887,-3.1e-5 -0.222656,0 -0.0088,0.0013 -0.0044,-8.1e-4 -0.01172,0 -0.0038,0.0048 -0.0043,0.0095 -0.0078,0.01367 -0.01239,-0.0058 -0.02467,-0.01188 -0.03711,-0.01758 -0.0066,-0.002 -0.03197,0.0023 -0.03125,-0.002 -0.007,0.0051 -0.01331,0.0092 -0.02148,0.01562 0.01531,0.01035 0.03409,0.01647 0.04883,0.02734 0.04387,0.03238 -0.196341,0.0897 -0.15625,0.05273 0.0081,-0.0075 0.0041,-8.31e-4 0.01172,-0.0078 -0.02249,-0.0056 -0.08559,-0.03209 -0.236328,-0.08398 -0.03722,-0.04809 -0.126585,-0.124688 -0.126953,-0.152344 l -5.753907,0 c -0.04015,0.05653 -0.211979,0.106516 -0.308593,0.132812 -0.0029,0.0036 -0.01403,0.03036 -0.01563,0.03125 -0.04208,0.02364 -0.07632,0.02895 -0.113282,0.04102 -0.03608,0.03822 -0.06584,0.06404 -0.08203,0.05078 6e-5,0.0013 -5.8e-5,0.0026 0,0.0039 9.14e-4,0.0204 -0.04691,0.03942 -0.05664,0.02148 -0.0085,-0.01568 -0.01193,-0.03455 -0.01953,-0.05078 -0.07202,-0.0038 -0.128413,-0.02486 -0.183594,-0.05273 0.0021,0.03255 0.0039,0.0651 0.0059,0.09766 -0.01006,0.0098 0.02893,0.0074 0.02148,0.0078 -0.09084,0.0055 -0.182491,0.0043 -0.273437,0.0039 -0.203305,-0.0014 -0.406068,-1.55e-4 -0.609375,0 -0.148706,1.4e-5 -0.298561,-2e-5 -0.447266,0 -0.243903,0.004 -0.31858,0.01816 -0.564453,-0.107421 -0.01153,-0.0059 -0.0192,-0.01734 -0.0293,-0.02539 0.0014,0.0046 0.01,0.0082 0.0078,0.01367 -0.01323,0.03359 -0.07035,-0.0131 -0.105469,-0.02148 -0.05956,-0.01421 -0.118977,-0.03148 -0.177734,-0.04883 -0.142016,-8.31e-4 -0.284004,-1.61e-4 -0.425782,-0.002 -0.354889,-0.04007 -0.775807,0.04024 -1.123047,-0.04687 -0.04629,-0.01161 -0.09026,-0.03134 -0.134765,-0.04883 l -4.210938,0 0,-18 2.798828,0 c 0.157116,-0.207466 0.474415,-0.437651 0.681641,-0.431641 -0.04961,-0.0014 0.208575,-0.08407 0.318359,-0.08203 -0.01033,0.009 -0.01904,0.02016 -0.0293,0.0293 0.06685,-0.02118 0.08309,-0.03923 0.08594,-0.04492 0.0034,-0.0067 0.197781,0.02919 0.345703,0.05469 0.09036,-0.0088 0.177432,-0.0049 0.253906,0.0332 0.108372,-0.02646 0.216671,-0.05309 0.326172,-0.07422 0.01553,-0.003 0.03099,-10e-4 0.04687,0 -0.01308,-0.0013 0.02591,4.2e-5 0.03906,0 0.02513,-8.1e-5 0.04909,1.85e-4 0.07422,0 0.04734,-3.49e-4 0.09524,-0.0018 0.142579,-0.002 0.01371,-5.2e-5 0.02732,-1.23e-4 0.04102,0 0.04763,0.0018 0.09499,0.003 0.142578,0.0059 0.01039,6.22e-4 -0.017,4.49e-4 -0.03125,0 -0.0022,-0.01007 0.06248,0.02487 0.13086,0.06055 0.106833,-0.008 0.21351,-0.0084 0.320312,-0.01367 -0.05711,-0.02762 -0.07371,-0.03553 0.03125,-0.002 -0.01043,4.37e-4 -0.02082,0.0014 -0.03125,0.002 0.0434,0.02099 0.133308,0.08052 0.230469,0.134766 -0.05399,-0.07797 0.104443,0.02065 0.230469,0.0957 -0.0072,-0.0079 -0.03502,-0.03846 -0.03906,-0.04297 0.0097,0.01208 0.03457,0.03502 0.04687,0.04883 0.02586,0.01535 0.05688,0.03261 0.07617,0.04297 0.08177,-0.0016 0.160645,-0.0041 0.234375,-0.002 0.251904,0.01659 0.104125,0.0087 0.05469,0.0059 0.08614,-0.01129 0.17148,-0.01955 0.257812,-0.0293 0.05918,0.007 0.117818,0.01785 0.177735,0.02148 0.233628,-0.04747 0.599658,-0.04829 0.646484,0.07031 0.0505,0.0031 0.09935,-0.0062 0.154297,0.01758 0.04549,0.01971 0.05779,0.02911 0.09766,0.04687 0.04699,4.31e-4 0.05679,0.0032 0.113281,0.002 0.05511,-5.75e-4 0.127822,6.9e-5 0.195313,0.002 0.179868,-0.06837 0.381765,-0.08522 0.701172,0.05078 l 4.828125,0 c 0.122655,-0.0652 0.179749,-0.07612 0.714843,-0.103516 0.0266,0.0052 0.05328,0.01116 0.08008,0.01563 -0.03097,0.01336 -0.400852,0.142308 0.03906,-0.01367 0.01177,-0.0022 0.02339,-0.0055 0.03516,-0.0078 0.02578,-0.129543 0.06815,-0.251359 0.167969,-0.341797 0.08126,-0.07362 0.213,-0.134415 0.361328,-0.185547 0.0051,-0.03778 1.05e-4,-0.07817 0.0078,-0.115234 0.0031,-0.01492 0.02486,-0.01291 0.03516,-0.02148 0.0064,-0.0011 -0.0073,-4.7e-5 0.0039,-0.002 0.04741,-0.03479 0.134835,-0.03348 0.199219,-0.04883 0.03116,-0.0074 0.05138,-0.0072 0.0957,-0.01367 0.0476,-0.02034 0.09373,-0.04334 0.138672,-0.06836 -0.03881,0.01442 -0.04282,0.01616 -0.154297,0.05273 -0.05621,0.01844 0.219129,-0.09027 0.167969,-0.06055 -0.0045,0.0026 -0.0091,0.0053 -0.01367,0.0078 0.04247,-0.01577 0.14193,-0.044 0.167969,-0.04883 0.02171,-0.0074 0.02536,-0.01212 0.03906,-0.01563 0.121037,-0.03093 0.241555,-0.06244 0.365235,-0.08008 z m -1.00586,0.27539 c -0.01894,0.0031 0.19815,-0.03114 0.246094,-0.03906 0.01185,-0.005 0.0233,-0.0106 0.03516,-0.01563 -0.09833,0.02154 -0.214733,0.04336 -0.28125,0.05469 z m -9.771484,0.324219 c -0.02149,0.0016 -0.04297,4.9e-4 -0.06445,0.002 0.09691,0.07766 0.100033,0.07127 0.185547,0.138672 0.03001,0.0026 0.04837,-0.004 0.125,0.03516 0.101686,0.02833 0.17947,0.05708 0.259765,0.08594 -0.212067,-0.11356 -0.382731,-0.197467 -0.505859,-0.261719 z m -0.06445,0.002 c -0.0041,-0.0033 -0.0037,-0.0026 -0.0078,-0.0059 -0.03983,-0.03194 -0.05722,-0.05025 -0.05859,-0.05664 -0.01782,-5.61e-4 -0.02606,-3.89e-4 -0.03906,0 -0.104989,0.0032 -0.409507,0.07328 -0.304688,0.08008 0.136582,0.0089 0.273367,-0.0083 0.410157,-0.01758 z m -1.533203,-0.03516 c -0.04756,0.01507 -0.132749,0.03285 -0.279297,0.05273 0.02925,0.0021 0.06753,-0.01219 0.08984,0.002 0.03385,0.02146 0.04373,0.03381 0.07617,0.05469 0.03807,-0.036 0.0743,-0.07465 0.113282,-0.109375 z m -0.113282,0.109375 c -0.130569,0.123489 -0.259903,0.248982 -0.388672,0.375 l 0.308594,0 c 0.08706,-0.08587 0.151239,-0.147315 0.283203,-0.232422 -0.07628,-0.05131 -0.117258,-0.08731 -0.203125,-0.142578 z m 0.203125,0.142578 c 0.09345,0.06286 0.16836,0.118633 0.248047,0.175781 0.03057,-0.117404 0.05509,-0.189239 0.08789,-0.322265 -0.105131,0.0091 -0.222128,0.07308 -0.335938,0.146484 z m 0.248047,0.175781 c -0.0054,0.02065 -0.01032,0.03646 -0.01563,0.05664 l 0.08008,0 c 8.63e-4,-0.0017 0.003,-0.0062 0.0039,-0.0078 -0.021,-0.01537 -0.04634,-0.03304 -0.06836,-0.04883 z m 0.06836,0.04883 c 0.0035,0.0026 0.0082,0.0052 0.01172,0.0078 l 0.06445,0 c 0.04717,-0.193222 0.02533,-0.203766 -0.07617,-0.0078 z m 10.787109,18.24414 c 0.06527,-0.05954 0.05881,-0.04333 0.0957,-0.07227 -0.02612,-0.01764 -0.05444,-0.03304 -0.08203,-0.04883 -0.04052,0.08225 0.0234,0.130282 -0.01367,0.121094 z m 0.01367,-0.121094 c 0.0033,-0.0067 0.0088,-0.01433 0.01367,-0.02148 -0.06725,-0.02951 -0.132153,-0.06388 -0.199219,-0.09375 l -0.111328,0 c 0.104508,0.02239 0.203025,0.06154 0.296875,0.115234 z m 0.01367,-0.02148 c 0.03362,0.01476 0.06619,0.03172 0.09961,0.04687 0.06318,-0.04487 0.124743,-0.09527 0.111328,-0.06445 0.04636,-0.02138 0.08436,-0.03421 0.125,-0.04687 0.0073,-0.0103 0.0097,-0.0191 0.01758,-0.0293 l -0.24414,0 c -0.05324,0.03437 -0.09006,0.06553 -0.109375,0.09375 z m 2.142578,-19.070312 c -0.0095,-0.0015 -0.01093,0.0027 -0.01953,0.002 0.08345,0.06081 0.252549,0.178905 0.601562,0.373047 0.0157,-0.0065 0.02796,-0.01643 0.04492,-0.02148 -0.03199,-0.03813 -0.06174,-0.07892 -0.09766,-0.113281 -0.09431,-0.09024 -0.371462,-0.215789 -0.529297,-0.240234 z m 0.626953,0.353515 c 0.02841,0.03387 0.05873,0.06647 0.08789,0.09961 -0.06428,-0.03403 -0.0789,-0.04814 -0.132812,-0.07812 -0.126464,0.05195 -0.218801,0.139701 -0.28125,0.263671 0.02663,0.0079 0.053,0.01665 0.08008,0.02344 0.0041,4.93e-4 0.01337,-7.53e-4 0.01172,0 l 0.002,0 c 0.258499,-0.0094 0.264388,-0.0032 0.310547,0.01367 0.09155,0.02976 0.108452,0.03476 0.152344,0.04883 0.0016,-0.0065 0.0044,-0.01506 0.0059,-0.02148 -0.03143,-0.008 -0.123251,-0.02172 -0.138672,-0.02734 0.0125,-9.63e-4 0.03887,0.0017 0.05859,0.002 0.02654,0.0065 0.03548,0.0097 0.08008,0.01953 0.05617,-0.250688 0.02125,-0.410535 -0.205078,-0.359375 -0.01255,0.0028 -0.01935,0.01208 -0.03125,0.01563 z m -1.992188,-0.302734 c -0.0598,-0.01673 -0.205968,0.04132 -0.34375,0.105469 0.09274,-0.01522 0.0227,-0.0035 0.371094,-0.05859 0.0034,-0.02604 -0.0067,-0.0411 -0.02734,-0.04687 z m -11.222656,0.492187 c -0.0039,-4.17e-4 -0.0078,0.0022 -0.01172,0.002 0.0064,4.58e-4 0.01319,-5.42e-4 0.01953,0 -0.0027,-3.05e-4 -0.0051,-0.0017 -0.0078,-0.002 z m 13.046875,0.210938 c 0.01874,0.02159 0.03633,0.04436 0.05469,0.06641 0.03627,9.69e-4 0.07323,0.0023 0.109375,0.002 -0.0075,-0.0063 -0.01859,-0.02103 -0.02539,-0.02539 -0.04139,-0.02657 -0.09223,-0.02853 -0.138672,-0.04297 z M 55.136718,45.6192 c -0.0063,-9.4e-5 -0.01843,0.0086 -0.02539,0.0098 0.01291,0.0022 0.02629,0.003 0.03906,0.0059 -0.0067,-0.0026 -0.0049,-0.01549 -0.01367,-0.01563 z m -2.253906,0.08398 c 0.0043,0.0043 0.0094,0.0074 0.01367,0.01172 0.0014,-3.06e-4 0.0025,-0.0016 0.0039,-0.002 -0.0058,-0.0033 -0.01175,-0.0065 -0.01758,-0.0098 z m 3.169922,0.08984 c -0.04067,0.006 -0.0026,0.0076 -0.07227,0.01562 0.0046,0.0022 0.0092,0.0037 0.01367,0.0059 0.01965,-0.0087 0.03999,-0.0133 0.05859,-0.02148 z m -3.753907,0.08594 0,0.05273 c 0.005,-0.0025 0.01074,-0.0032 0.01563,-0.0059 0.0085,-0.0046 0.01325,-0.014 0.01953,-0.02148 -0.0097,-0.0074 -0.02524,-0.01784 -0.03516,-0.02539 z m -28,2.921875 c 3.3,0 6,2.7 6,6 l 0,21 -12,0 0,-21 c 0,-3.3 2.7,-6 6,-6 z m 28.279297,1.878906 c -0.0072,3.62e-4 -0.0143,0.0016 -0.02148,0.002 -8.24e-4,0.0028 -0.003,0.005 -0.0039,0.0078 0.0085,-0.003 0.01688,-0.0068 0.02539,-0.0098 z m 3.705078,1.298828 c -0.0028,0.007 -0.0049,0.01446 -0.0078,0.02148 l 0.02344,0.0078 0,-0.0293 c -0.0052,-8.2e-5 -0.01041,7.2e-5 -0.01563,0 z m 8.427735,5.298828 c -0.0019,0.0033 -0.004,0.0065 -0.0059,0.0098 0.002,0.0025 0.0076,0.0072 0.0098,0.0098 -0.001,-0.0055 -0.0029,-0.01414 -0.0039,-0.01953 z M 26.34961,60.300788 c -0.525,0 -1.051172,0.199609 -1.451172,0.599609 0,0.1 -0.09922,0.200782 -0.199219,0.300782 -0.1,0.1 -0.09922,0.198828 -0.199219,0.298828 0,0.2 -0.101562,0.30039 -0.101562,0.40039 l 0,0.400391 c 0,0.5 0.201562,1.000391 0.601562,1.400391 0.1,0.2 0.39961,0.30039 0.59961,0.40039 0.3,0.2 0.498828,0.199219 0.798828,0.199219 0.5,0 1.00039,-0.199609 1.40039,-0.599609 0.2,-0.1 0.300391,-0.39961 0.400391,-0.59961 0.2,-0.3 0.199219,-0.500781 0.199219,-0.800781 0,-0.5 -0.19961,-1.000391 -0.59961,-1.400391 -0.4,-0.4 -0.924218,-0.599609 -1.449218,-0.599609 z m 29.6875,3.197266 c -0.03446,8.3e-4 -0.06906,8.24e-4 -0.103516,0.002 -0.04482,0.09093 -0.07313,0.175056 -0.01758,0.142578 0.06374,-0.03727 0.07139,-0.0477 0.125,-0.08008 -0.0013,-0.02149 -0.0027,-0.04296 -0.0039,-0.06445 z m 0.0039,0.06445 c 0.0052,0.0892 0.0097,0.178413 0.01563,0.267578 0.03279,-0.02612 0.06251,-0.04827 0.0918,-0.07031 -0.02361,-0.07353 -0.05087,-0.144505 -0.08203,-0.21289 -0.01037,0.0063 -0.01462,0.0091 -0.02539,0.01563 z m 0.02539,-0.01563 c 0.01376,-0.0084 0.02012,-0.01344 0.0332,-0.02148 -0.0022,-0.0092 -0.0037,-0.01828 -0.0059,-0.02734 -0.01821,3.6e-4 -0.03648,-4.36e-4 -0.05469,0 0.009,0.01626 0.01957,0.03177 0.02734,0.04883 z m 8.892579,0.128906 c -0.01346,6.96e-4 -0.01458,0.003 -0.02539,0.0039 0.02901,0.0023 0.01712,-0.0014 0.03711,0 -0.0049,-0.0015 -0.0086,-0.0028 -0.01172,-0.0039 z m -0.519532,0.04297 c -0.0033,3.63e-4 -0.01231,0.0016 -0.01563,0.002 -0.0072,0.0067 -0.01742,0.01241 -0.02539,0.01953 l 0,0.01953 c 0.02244,-0.02077 0.01799,-0.01973 0.04102,-0.04102 z m -7.835937,0.08203 c -7.77e-4,0.0014 -0.0012,0.0025 -0.002,0.0039 0.02082,0.0042 0.04166,0.0058 0.0625,0.0098 0.0054,-0.0045 0.01018,-0.0094 0.01563,-0.01367 l -0.07617,0 z m 0.11914,0 c -0.0069,0.0061 -0.01247,0.01357 -0.01953,0.01953 0.0013,2.04e-4 0.0026,-1.98e-4 0.0039,0 0.01237,0.0048 0.02461,-0.01655 0.03711,-0.01953 l -0.02148,0 z m 7.628907,0 c 0.0034,2.04e-4 0.0058,0.0043 0.01367,0.0059 0.0101,-0.0055 -0.0017,-7.43e-4 0.0078,-0.0059 l -0.02148,0 z m -0.142578,0.002 c -0.02358,0.02438 -0.04928,0.04111 -0.07422,0.06445 0.0046,8.29e-4 0.0091,0.0032 0.01367,0.0039 0.02222,-0.02232 0.02842,-0.03155 0.06641,-0.06641 -0.0016,-0.0013 -0.0043,-6.62e-4 -0.0059,-0.002 z m -7.623047,0.03516 c -0.0135,0.02374 -0.03037,0.06163 -0.03906,0.07422 0.01959,-0.01515 0.04537,-0.0363 0.07617,-0.06445 -0.01254,-0.003 -0.02417,-0.0045 -0.03711,-0.0098 z m 13.271484,0.01172 c -0.0052,2.5e-4 -0.01065,0.0017 -0.01563,0.002 0.0017,0.0023 0.0022,0.0015 0.0039,0.0039 0.02814,0.03867 0.168602,0.08723 0.128907,0.06055 -0.03737,-0.02511 -0.0765,-0.0465 -0.117188,-0.06641 z m 6.859375,7.019531 c -5.08e-4,5.13e-4 -0.0034,0.0052 -0.0039,0.0059 0.0027,0.0011 0.0032,8.28e-4 0.0059,0.002 0,0 0.002,-0.002 0.002,-0.002 -0.0011,-0.002 -0.0027,-0.0039 -0.0039,-0.0059 z m 0.273438,0.121094 c -0.0024,0.0097 -0.0059,0.04207 -0.0078,0.04687 0.0042,-0.01598 0.0094,-0.0318 0.01563,-0.04492 -0.0014,-6.17e-4 -0.0025,-0.0013 -0.0039,-0.002 -0.0013,1.16e-4 -0.0027,-5.84e-4 -0.0039,0 z m -0.04687,0.0332 c -0.02972,0.02103 -0.04011,0.04812 -0.05469,0.07422 0.0093,0.0075 0.018,0.0159 0.02734,0.02344 0.0091,-0.0325 0.01925,-0.06447 0.02734,-0.09766 z m 1.83789,1.34375 c 0.0035,0.02285 0.0084,0.04886 0.01172,0.07031 0.01014,0.0025 0.02847,-0.0023 0.03125,0.0078 0.02924,0.105944 0.04438,0.215571 0.06445,0.324219 0.08898,0.06832 0.171542,0.141326 0.240234,0.222656 6.15e-4,-0.0041 0.0033,-0.0076 0.0039,-0.01172 0.01446,-0.103522 0.03167,-0.237367 -0.04297,-0.310547 -0.07117,-0.06978 -0.201104,-0.194464 -0.308594,-0.302735 z m -70.7812502,7.433594 34.0000002,0 0,6 -34.0000002,0 0,-6 z M 79.154296,80.97661 c -0.001,-0.0044 -0.0047,0.01469 -0.0059,0.01172 l 0,0.01367 c 0,0.05583 -0.0049,0.112359 0,0.167969 0.0027,0.03073 -0.0052,-0.121716 0.0078,-0.09375 0.0078,0.01679 0.0055,0.03669 0.0098,0.05469 -0.0019,-0.04928 -0.0039,-0.120589 -0.01172,-0.154297 z"
     inkscape:connector-curvature="0" /><rect
     style="opacity:1;fill:#000000;fill-opacity:1;fill-rule:nonzero"
     id="rect4199"
     width="26.591412"
     height="2.6216886"
     x="46.619724"
     y="43.743416" /><rect
     style="opacity:1;fill:#000000;fill-opacity:1;fill-rule:nonzero"
     id="rect4201"
     width="2.8089521"
     height="19.662659"
     x="71.525764"
     y="46.177841" /><rect
     style="opacity:1;fill:#000000;fill-opacity:1;fill-rule:nonzero"
     id="rect4203"
     width="25.280565"
     height="2.6216884"
     x="47.930569"
     y="63.406082" /><rect
     style="opacity:1;fill:#000000;fill-opacity:1;fill-rule:nonzero"
     id="rect4205"
     width="1.685371"
     height="50.935658"
     x="78.641777"
     y="36.814671" /><rect
     style="opacity:1;fill:#000000;fill-opacity:1;fill-rule:nonzero"
     id="rect4208"
     width="26.965937"
     height="4.1197958"
     x="46.057934"
     y="52.732063" /><rect
     style="opacity:1;fill:#000000;fill-opacity:1;fill-rule:nonzero"
     id="rect4210"
     width="3.9325323"
     height="19.849926"
     x="58.042793"
     y="45.428787" /></svg>