<svg xmlns:x="http://ns.adobe.com/Extensibility/1.0/" xmlns:i="http://ns.adobe.com/AdobeIllustrator/10.0/" xmlns:graph="http://ns.adobe.com/Graphs/1.0/" xmlns="http://www.w3.org/2000/svg" xmlns:xlink="http://www.w3.org/1999/xlink" xmlns:a="http://ns.adobe.com/AdobeSVGViewerExtensions/3.0/" version="1.1" x="0px" y="0px" viewBox="0 0 100 100" enable-background="new 0 0 100 100" xml:space="preserve"><g><path d="M38.5,53.2v23c0,1.1,0.9,2,2,2h19c1.1,0,2-0.9,2-2v-23c0-1.1-0.9-2-2-2h-19C39.4,51.2,38.5,52.1,38.5,53.2z M52,55.2h5.5   v7.5H52V55.2z M52,66.7h5.5v7.5H52V66.7z M42.5,55.2H48v7.5h-5.5V55.2z M42.5,66.7H48v7.5h-5.5V66.7z"/><path d="M98.5,79.2c-8,0-12.3,1.9-16.2,4V49.9l1.1,0.6c0.9,0.5,1.8,0.7,2.8,0.7c2.2,0,4.2-1.2,5.2-3.2c1.5-2.9,0.4-6.5-2.5-8   l-7.4-3.9V22.2c0-1.1-0.9-2-2-2H68.8c-1.1,0-2,0.9-2,2v6.1l-14-7.4c-1.7-0.9-3.8-0.9-5.5,0L11.1,40c-2.9,1.5-4,5.1-2.5,8   c1,1.9,3,3.2,5.2,3.2c1,0,1.9-0.2,2.8-0.7l1.1-0.6v33.2c-0.3,0.2-0.7,0.3-1,0.5c-3.9,2-7.6,3.9-15.2,3.9c-1.1,0-2,0.9-2,2   s0.9,2,2,2c8.6,0,12.9-2.2,17.1-4.4c3.9-2,7.6-3.9,15.2-3.9c7.6,0,11.3,1.9,15.2,3.9c4.2,2.2,8.5,4.4,17.1,4.4   c7,0,11.2-1.5,14.8-3.3c0,0,0.1,0,0.1,0c0.7-0.4,1.4-0.7,2.2-1.1c3.9-2,7.6-3.9,15.2-3.9c1.1,0,2-0.9,2-2S99.6,79.2,98.5,79.2z    M70.8,24.2h6.7V34l-6.7-3.5V24.2z M78.2,85.2c-3,1.3-6.5,2.4-12.1,2.4c-7.6,0-11.3-1.9-15.2-3.9c-4.2-2.2-8.5-4.4-17.1-4.4   c-5.3,0-9,0.9-12.1,2V47.8L50,32.9l28.2,14.9V85.2z M50.9,28.8c-0.3-0.2-0.6-0.2-0.9-0.2s-0.6,0.1-0.9,0.2L14.8,46.9   c-0.9,0.5-2.1,0.1-2.6-0.8c-0.5-0.9-0.1-2.1,0.8-2.6l36.1-19.1c0.6-0.3,1.2-0.3,1.8,0L87,43.5c0.9,0.5,1.3,1.7,0.8,2.6   c-0.5,0.9-1.7,1.3-2.6,0.8L50.9,28.8z"/><path d="M60.2,10.2c-4.3,0.6-7,0.8-8.7-1.1c-0.7-0.8-2-0.9-2.8-0.2c-0.8,0.7-0.9,2-0.2,2.8c3.2,3.6,8,3,12.2,2.4   c5.4-0.7,8.5-1,10.1,3.4c0.3,0.8,1.1,1.3,1.9,1.3c0.2,0,0.5,0,0.7-0.1c1-0.4,1.6-1.5,1.2-2.6C71.9,8.6,65.1,9.5,60.2,10.2z"/></g></svg>