<?xml version="1.0" encoding="UTF-8" standalone="no"?>
<svg
   xmlns:dc="http://purl.org/dc/elements/1.1/"
   xmlns:cc="http://creativecommons.org/ns#"
   xmlns:rdf="http://www.w3.org/1999/02/22-rdf-syntax-ns#"
   xmlns:svg="http://www.w3.org/2000/svg"
   xmlns="http://www.w3.org/2000/svg"
   xmlns:sodipodi="http://sodipodi.sourceforge.net/DTD/sodipodi-0.dtd"
   xmlns:inkscape="http://www.inkscape.org/namespaces/inkscape"
   version="1.1"
   x="0px"
   y="0px"
   viewBox="0 0 64 64"
   enable-background="new 0 0 64 64"
   xml:space="preserve"
   id="svg2"
   inkscape:version="0.91 r13725"
   sodipodi:docname="noun_1632832_cc.svg"
   width="64"
   height="64"><metadata
     id="metadata202"><rdf:RDF><cc:Work
         rdf:about=""><dc:format>image/svg+xml</dc:format><dc:type
           rdf:resource="http://purl.org/dc/dcmitype/StillImage" /><dc:title></dc:title></cc:Work></rdf:RDF></metadata><defs
     id="defs200" /><sodipodi:namedview
     pagecolor="#ffffff"
     bordercolor="#666666"
     borderopacity="1"
     objecttolerance="10"
     gridtolerance="10"
     guidetolerance="10"
     inkscape:pageopacity="0"
     inkscape:pageshadow="2"
     inkscape:window-width="1167"
     inkscape:window-height="699"
     id="namedview198"
     showgrid="false"
     inkscape:zoom="5.9"
     inkscape:cx="34.809084"
     inkscape:cy="43.219483"
     inkscape:window-x="0"
     inkscape:window-y="0"
     inkscape:window-maximized="0"
     inkscape:current-layer="svg2" /><g
     display="none"
     id="g4"
     style="display:none"
     transform="translate(0,-16)"><g
       display="inline"
       id="g6"
       style="display:inline"><rect
         x="20"
         y="17"
         width="24"
         height="18"
         id="rect8"
         style="fill:#000000" /><rect
         x="4"
         y="43"
         width="24"
         height="18"
         id="rect10"
         style="fill:#000000" /><rect
         x="3"
         y="37"
         width="26"
         height="6"
         id="rect12"
         style="fill:#000000" /><rect
         x="19"
         y="23"
         width="2"
         height="2"
         id="rect14" /><path
         d="m 44,36 -24,0 c -0.552,0 -1,-0.448 -1,-1 l 0,-8 2,0 0,7 22,0 0,-16 -22,0 0,3 -2,0 0,-4 c 0,-0.552 0.448,-1 1,-1 l 24,0 c 0.552,0 1,0.448 1,1 l 0,18 c 0,0.552 -0.448,1 -1,1 z"
         id="path16"
         inkscape:connector-curvature="0" /><rect
         x="17.311001"
         y="7.1669998"
         transform="matrix(0.9427,-0.3338,0.3338,0.9427,-1.6552,10.6995)"
         width="26"
         height="6"
         id="rect18"
         style="fill:#000000" /><path
         d="m 19.057,18.334 c -0.147,0 -0.295,-0.033 -0.431,-0.098 -0.239,-0.114 -0.423,-0.318 -0.512,-0.569 L 16.112,12.011 C 15.928,11.49 16.2,10.919 16.721,10.735 L 41.23,2.057 c 0.25,-0.087 0.525,-0.074 0.765,0.041 0.239,0.114 0.423,0.318 0.512,0.568 l 2.002,5.656 C 44.693,8.843 44.421,9.414 43.9,9.599 l -24.509,8.678 c -0.108,0.038 -0.221,0.057 -0.334,0.057 z M 18.331,12.287 19.666,16.058 42.29,8.047 40.955,4.276 18.331,12.287 Z"
         id="path20"
         inkscape:connector-curvature="0" /><rect
         x="36"
         y="43"
         width="24"
         height="18"
         id="rect22"
         style="fill:#000000" /><rect
         x="35"
         y="37"
         width="26"
         height="6"
         id="rect24"
         style="fill:#000000" /><path
         d="M 29,36 3,36 c -0.552,0 -1,0.448 -1,1 l 0,6 c 0,0.552 0.448,1 1,1 l 0,17 c 0,0.552 0.448,1 1,1 l 24,0 c 0.552,0 1,-0.448 1,-1 l 0,-17 c 0.552,0 1,-0.448 1,-1 l 0,-6 c 0,-0.552 -0.448,-1 -1,-1 z m -25,2 24,0 0,4 -24,0 0,-4 z m 23,22 -22,0 0,-16 22,0 0,16 z"
         id="path26"
         inkscape:connector-curvature="0" /><path
         d="m 61,36 -26,0 c -0.552,0 -1,0.448 -1,1 l 0,6 c 0,0.552 0.448,1 1,1 l 0,17 c 0,0.552 0.448,1 1,1 l 24,0 c 0.552,0 1,-0.448 1,-1 l 0,-17 c 0.552,0 1,-0.448 1,-1 l 0,-6 c 0,-0.552 -0.448,-1 -1,-1 z m -25,2 24,0 0,4 -24,0 0,-4 z m 23,22 -22,0 0,-16 22,0 0,16 z"
         id="path28"
         inkscape:connector-curvature="0" /><g
         id="g30"><rect
           x="49.040001"
           y="11.091"
           width="4"
           height="2"
           id="rect32" /><rect
           x="55.040001"
           y="11.091"
           width="2"
           height="2"
           id="rect34" /><rect
           x="48.756001"
           y="5.0560002"
           transform="matrix(0.479,0.8778,-0.8778,0.479,32.1193,-40.0007)"
           width="2"
           height="4"
           id="rect36" /><rect
           x="53.144001"
           y="3.6600001"
           transform="matrix(0.479,0.8778,-0.8778,0.479,32.3028,-45.1019)"
           width="2"
           height="2"
           id="rect38" /><rect
           x="47.755001"
           y="16.125"
           transform="matrix(0.8777,0.4792,-0.4792,0.8777,14.2929,-21.7502)"
           width="4.0009999"
           height="2"
           id="rect40" /><rect
           x="53.144001"
           y="18.521"
           transform="matrix(0.8777,0.4791,-0.4791,0.8777,15.9731,-23.5563)"
           width="2"
           height="2"
           id="rect42" /></g><g
         id="g44"><path
           d="m 19.02,51 -6.04,0 C 11.886,51 11,50.114 11,49.02 l 0,-0.04 C 11,47.886 11.886,47 12.98,47 l 6.04,0 c 1.094,0 1.98,0.886 1.98,1.98 l 0,0.04 C 21,50.114 20.114,51 19.02,51 Z"
           id="path46"
           inkscape:connector-curvature="0"
           style="fill:#000000" /><path
           d="m 19.02,52 -6.04,0 C 11.337,52 10,50.663 10,49.02 10,47.337 11.337,46 12.98,46 l 6.04,0 C 20.663,46 22,47.337 22,48.98 22,50.663 20.663,52 19.02,52 Z M 12.98,48 C 12.439,48 12,48.439 12,48.98 12,49.561 12.439,50 12.98,50 l 6.04,0 C 19.561,50 20,49.561 20,49.02 20,48.439 19.561,48 19.02,48 l -6.04,0 z"
           id="path48"
           inkscape:connector-curvature="0" /></g><g
         id="g50"><path
           d="m 51.02,51 -6.04,0 C 43.886,51 43,50.114 43,49.02 l 0,-0.04 C 43,47.886 43.886,47 44.98,47 l 6.04,0 c 1.094,0 1.98,0.886 1.98,1.98 l 0,0.04 C 53,50.114 52.114,51 51.02,51 Z"
           id="path52"
           inkscape:connector-curvature="0"
           style="fill:#000000" /><path
           d="m 51.02,52 -6.04,0 C 43.337,52 42,50.663 42,49.02 42,47.337 43.337,46 44.98,46 l 6.04,0 C 52.663,46 54,47.337 54,48.98 54,50.663 52.663,52 51.02,52 Z M 44.98,48 C 44.439,48 44,48.439 44,48.98 44,49.561 44.439,50 44.98,50 l 6.04,0 C 51.561,50 52,49.561 52,49.02 52,48.439 51.561,48 51.02,48 l -6.04,0 z"
           id="path54"
           inkscape:connector-curvature="0" /></g><g
         id="g56"><path
           d="m 35.02,25 -6.04,0 C 27.886,25 27,24.114 27,23.02 l 0,-0.04 C 27,21.886 27.886,21 28.98,21 l 6.04,0 c 1.094,0 1.98,0.886 1.98,1.98 l 0,0.04 C 37,24.114 36.114,25 35.02,25 Z"
           id="path58"
           inkscape:connector-curvature="0"
           style="fill:#000000" /><path
           d="m 35.02,26 -6.04,0 C 27.337,26 26,24.663 26,23.02 26,21.337 27.337,20 28.98,20 l 6.04,0 C 36.663,20 38,21.337 38,22.98 38,24.663 36.663,26 35.02,26 Z M 28.98,22 C 28.439,22 28,22.439 28,22.98 28,23.561 28.439,24 28.98,24 l 6.04,0 C 35.561,24 36,23.561 36,23.02 36,22.439 35.561,22 35.02,22 l -6.04,0 z"
           id="path60"
           inkscape:connector-curvature="0" /></g><rect
         x="21"
         y="56"
         width="4"
         height="2"
         id="rect62" /><rect
         x="37"
         y="30"
         width="4"
         height="2"
         id="rect64" /><rect
         x="53"
         y="56"
         width="4"
         height="2"
         id="rect66" /></g></g><g
     display="none"
     id="g68"
     style="display:none"
     transform="translate(0,-16)"><g
       display="inline"
       id="g70"
       style="display:inline"><path
         d="M 28,42 4,42 c -0.552,0 -1,0.448 -1,1 l 0,18 c 0,0.552 0.448,1 1,1 l 24,0 c 0.552,0 1,-0.448 1,-1 l 0,-18 c 0,-0.552 -0.448,-1 -1,-1 z"
         id="path72"
         inkscape:connector-curvature="0"
         style="fill:#000000" /><path
         d="m 20,36 24,0 c 0.552,0 1,-0.448 1,-1 l 0,-18 c 0,-0.552 -0.448,-1 -1,-1 l -24,0 c -0.552,0 -1,0.448 -1,1 l 0,18 c 0,0.552 0.448,1 1,1 z"
         id="path74"
         inkscape:connector-curvature="0"
         style="fill:#000000" /><path
         d="m 60,42 -24,0 c -0.552,0 -1,0.448 -1,1 l 0,18 c 0,0.552 0.448,1 1,1 l 24,0 c 0.552,0 1,-0.448 1,-1 l 0,-18 c 0,-0.552 -0.448,-1 -1,-1 z"
         id="path76"
         inkscape:connector-curvature="0"
         style="fill:#000000" /><g
         id="g78"><path
           d="M 29,36 3,36 c -0.552,0 -1,0.448 -1,1 l 0,6 c 0,0.552 0.448,1 1,1 l 26,0 c 0.552,0 1,-0.448 1,-1 l 0,-6 c 0,-0.552 -0.448,-1 -1,-1 z"
           id="path80"
           inkscape:connector-curvature="0"
           style="fill:#000000" /><path
           d="m 18.115,17.668 c 0.146,0.41 0.531,0.667 0.943,0.667 0.111,0 0.224,-0.019 0.334,-0.058 L 43.9,9.599 C 44.421,9.414 44.693,8.843 44.509,8.322 L 42.507,2.666 C 42.418,2.416 42.234,2.211 41.995,2.098 41.755,1.984 41.48,1.97 41.23,2.057 l -24.509,8.678 c -0.25,0.089 -0.455,0.273 -0.568,0.512 -0.114,0.24 -0.129,0.515 -0.041,0.765 l 2.003,5.656 z"
           id="path82"
           inkscape:connector-curvature="0"
           style="fill:#000000" /><path
           d="m 61,36 -26,0 c -0.552,0 -1,0.448 -1,1 l 0,6 c 0,0.552 0.448,1 1,1 l 26,0 c 0.552,0 1,-0.448 1,-1 l 0,-6 c 0,-0.552 -0.448,-1 -1,-1 z"
           id="path84"
           inkscape:connector-curvature="0"
           style="fill:#000000" /></g><g
         id="g86"><rect
           x="49.040001"
           y="11.091"
           width="4"
           height="2"
           id="rect88"
           style="fill:#000000" /><rect
           x="55.040001"
           y="11.091"
           width="2"
           height="2"
           id="rect90"
           style="fill:#000000" /><rect
           x="48.756001"
           y="5.0560002"
           transform="matrix(0.479,0.8778,-0.8778,0.479,32.1193,-40.0007)"
           width="2"
           height="4"
           id="rect92"
           style="fill:#000000" /><rect
           x="53.144001"
           y="3.6600001"
           transform="matrix(0.479,0.8778,-0.8778,0.479,32.3028,-45.1019)"
           width="2"
           height="2"
           id="rect94"
           style="fill:#000000" /><rect
           x="47.755001"
           y="16.125"
           transform="matrix(0.8777,0.4792,-0.4792,0.8777,14.2929,-21.7502)"
           width="4.0009999"
           height="2"
           id="rect96"
           style="fill:#000000" /><rect
           x="53.144001"
           y="18.521"
           transform="matrix(0.8777,0.4791,-0.4791,0.8777,15.9731,-23.5563)"
           width="2"
           height="2"
           id="rect98"
           style="fill:#000000" /></g><path
         d="m 19.02,52 -6.04,0 C 11.337,52 10,50.663 10,49.02 10,47.337 11.337,46 12.98,46 l 6.04,0 C 20.663,46 22,47.337 22,48.98 22,50.663 20.663,52 19.02,52 Z M 12.98,48 C 12.439,48 12,48.439 12,48.98 12,49.561 12.439,50 12.98,50 l 6.04,0 C 19.561,50 20,49.561 20,49.02 20,48.439 19.561,48 19.02,48 l -6.04,0 z"
         id="path100"
         inkscape:connector-curvature="0"
         style="fill:#000000" /><path
         d="m 51.02,52 -6.04,0 C 43.337,52 42,50.663 42,49.02 42,47.337 43.337,46 44.98,46 l 6.04,0 C 52.663,46 54,47.337 54,48.98 54,50.663 52.663,52 51.02,52 Z M 44.98,48 C 44.439,48 44,48.439 44,48.98 44,49.561 44.439,50 44.98,50 l 6.04,0 C 51.561,50 52,49.561 52,49.02 52,48.439 51.561,48 51.02,48 l -6.04,0 z"
         id="path102"
         inkscape:connector-curvature="0"
         style="fill:#000000" /><path
         d="m 35.02,26 -6.04,0 C 27.337,26 26,24.663 26,23.02 26,21.337 27.337,20 28.98,20 l 6.04,0 C 36.663,20 38,21.337 38,22.98 38,24.663 36.663,26 35.02,26 Z M 28.98,22 C 28.439,22 28,22.439 28,22.98 28,23.561 28.439,24 28.98,24 l 6.04,0 C 35.561,24 36,23.561 36,23.02 36,22.439 35.561,22 35.02,22 l -6.04,0 z"
         id="path104"
         inkscape:connector-curvature="0"
         style="fill:#000000" /><path
         d="m 28,33 c -3.226,0 -6.269,-0.642 -9,-1.756 L 19,35 c 0,0.552 0.448,1 1,1 l 24,0 c 0.552,0 1,-0.448 1,-1 l 0,-9.462 C 41.184,30.052 35.001,33 28,33 Z"
         id="path106"
         inkscape:connector-curvature="0"
         style="fill:#000000" /><path
         d="M 12,59 C 8.774,59 5.731,58.358 3,57.244 L 3,61 c 0,0.552 0.448,1 1,1 l 24,0 c 0.552,0 1,-0.448 1,-1 l 0,-9.462 C 25.184,56.052 19.001,59 12,59 Z"
         id="path108"
         inkscape:connector-curvature="0"
         style="fill:#000000" /><path
         d="m 44,59 c -3.226,0 -6.269,-0.642 -9,-1.756 L 35,61 c 0,0.552 0.448,1 1,1 l 24,0 c 0.552,0 1,-0.448 1,-1 l 0,-9.462 C 57.184,56.052 51.001,59 44,59 Z"
         id="path110"
         inkscape:connector-curvature="0"
         style="fill:#000000" /><rect
         x="37"
         y="30"
         width="4"
         height="2"
         id="rect112"
         style="fill:#000000" /><rect
         x="21"
         y="56"
         width="4"
         height="2"
         id="rect114"
         style="fill:#000000" /><rect
         x="53"
         y="56"
         width="4"
         height="2"
         id="rect116"
         style="fill:#000000" /></g></g><g
     id="g118"
     transform="translate(-0.16949153,-0.0677966)"><g
       id="g120"><rect
         x="19"
         y="18.805298"
         width="1.9999996"
         height="8.9512196"
         id="rect122" /><path
         d="m 61,36 -17,0 c 0.552,0 1,-0.448 1,-1 l 0,-18 c 0,-0.552 -0.448,-1 -1,-1 L 25.821,16 43.9,9.599 C 44.421,9.414 44.693,8.843 44.509,8.322 L 42.507,2.666 C 42.418,2.416 42.234,2.211 41.995,2.098 41.755,1.984 41.48,1.97 41.23,2.057 l -24.509,8.678 c -0.521,0.185 -0.793,0.756 -0.609,1.276 l 2.002,5.656 c 0.089,0.25 0.273,0.455 0.512,0.569 0.118,0.056 0.246,0.077 0.374,0.085 l 0,2.679 2,0 0,-3 22,0 0,16 -22,0 0,-7 -2,0 0,8 c 0,0.552 0.448,1 1,1 L 3,36 c -0.552,0 -1,0.448 -1,1 l 0,6 c 0,0.552 0.448,1 1,1 l 0,17 c 0,0.552 0.448,1 1,1 l 24,0 c 0.552,0 1,-0.448 1,-1 l 0,-17 c 0.552,0 1,-0.448 1,-1 l 0,-6 c 0,-0.552 -0.448,-1 -1,-1 l 6,0 c -0.552,0 -1,0.448 -1,1 l 0,6 c 0,0.552 0.448,1 1,1 l 0,17 c 0,0.552 0.448,1 1,1 l 24,0 c 0.552,0 1,-0.448 1,-1 l 0,-17 c 0.552,0 1,-0.448 1,-1 l 0,-6 c 0,-0.552 -0.448,-1 -1,-1 z M 18.331,12.287 40.955,4.277 42.29,8.048 19.666,16.059 18.331,12.287 Z M 4,38 l 24,0 0,4 -24,0 0,-4 z m 23,22 -22,0 0,-16 22,0 0,16 z m 33,-22 0,4 -24,0 0,-4 24,0 z m -1,22 -22,0 0,-16 22,0 0,16 z"
         id="path124"
         inkscape:connector-curvature="0" /><path
         d="m 12.98,52 6.04,0 C 20.663,52 22,50.663 22,48.98 22,47.337 20.663,46 19.02,46 l -6.04,0 C 11.337,46 10,47.337 10,49.02 10,50.663 11.337,52 12.98,52 Z m 0,-4 6.04,0 C 19.561,48 20,48.439 20,49.02 20,49.561 19.561,50 19.02,50 l -6.04,0 C 12.439,50 12,49.561 12,48.98 12,48.439 12.439,48 12.98,48 Z"
         id="path138"
         inkscape:connector-curvature="0" /><path
         d="m 44.98,52 6.04,0 C 52.663,52 54,50.663 54,48.98 54,47.337 52.663,46 51.02,46 l -6.04,0 C 43.337,46 42,47.337 42,49.02 42,50.663 43.337,52 44.98,52 Z m 0,-4 6.04,0 C 51.561,48 52,48.439 52,49.02 52,49.561 51.561,50 51.02,50 l -6.04,0 C 44.439,50 44,49.561 44,48.98 44,48.439 44.439,48 44.98,48 Z"
         id="path140"
         inkscape:connector-curvature="0" /><path
         d="m 35.02,20 -6.04,0 C 27.337,20 26,21.337 26,23.02 26,24.663 27.337,26 28.98,26 l 6.04,0 C 36.663,26 38,24.663 38,22.98 38,21.337 36.663,20 35.02,20 Z m 0,4 -6.04,0 C 28.439,24 28,23.561 28,22.98 28,22.439 28.439,22 28.98,22 l 6.04,0 C 35.561,22 36,22.439 36,23.02 36,23.561 35.561,24 35.02,24 Z"
         id="path142"
         inkscape:connector-curvature="0" /><rect
         x="21"
         y="56"
         width="4"
         height="2"
         id="rect144" /><rect
         x="37"
         y="30"
         width="4"
         height="2"
         id="rect146" /><rect
         x="53"
         y="56"
         width="4"
         height="2"
         id="rect148" /></g></g><g
     display="none"
     id="g150"
     style="display:none"
     transform="translate(0,-16)"><g
       display="inline"
       id="g152"
       style="display:inline"><rect
         x="4"
         y="43"
         stroke-miterlimit="10"
         width="24"
         height="18"
         id="rect154"
         style="fill:none;stroke:#000000;stroke-width:2;stroke-linejoin:round;stroke-miterlimit:10" /><rect
         x="3"
         y="37"
         stroke-miterlimit="10"
         width="26"
         height="6"
         id="rect156"
         style="fill:none;stroke:#000000;stroke-width:2;stroke-linejoin:round;stroke-miterlimit:10" /><line
         stroke-miterlimit="10"
         x1="20"
         y1="25"
         x2="20"
         y2="23"
         id="line158"
         style="fill:none;stroke:#000000;stroke-width:2;stroke-linejoin:round;stroke-miterlimit:10" /><polyline
         stroke-miterlimit="10"
         points="20,21 20,17     44,17 44,35 20,35 20,27   "
         id="polyline160"
         style="fill:none;stroke:#000000;stroke-width:2;stroke-linejoin:round;stroke-miterlimit:10" /><rect
         x="17.311001"
         y="7.1669998"
         transform="matrix(0.9427,-0.3338,0.3338,0.9427,-1.6552,10.6995)"
         stroke-miterlimit="10"
         width="26"
         height="6"
         id="rect162"
         style="fill:none;stroke:#000000;stroke-width:2;stroke-linejoin:round;stroke-miterlimit:10" /><rect
         x="36"
         y="43"
         stroke-miterlimit="10"
         width="24"
         height="18"
         id="rect164"
         style="fill:none;stroke:#000000;stroke-width:2;stroke-linejoin:round;stroke-miterlimit:10" /><rect
         x="35"
         y="37"
         stroke-miterlimit="10"
         width="26"
         height="6"
         id="rect166"
         style="fill:none;stroke:#000000;stroke-width:2;stroke-linejoin:round;stroke-miterlimit:10" /><g
         id="g168"><path
           stroke-miterlimit="10"
           d="m 49.04,12.091 c 1.6,0 2.4,0 4,0"
           id="path170"
           inkscape:connector-curvature="0"
           style="fill:none;stroke:#000000;stroke-width:2;stroke-miterlimit:10" /><path
           stroke-miterlimit="10"
           d="m 55.04,12.091 c 0.8,0 1.2,0 2,0"
           id="path172"
           inkscape:connector-curvature="0"
           style="fill:none;stroke:#000000;stroke-width:2;stroke-miterlimit:10" /><path
           stroke-miterlimit="10"
           d="m 48,8.015 c 1.404,-0.767 2.107,-1.15 3.511,-1.917"
           id="path174"
           inkscape:connector-curvature="0"
           style="fill:none;stroke:#000000;stroke-width:2;stroke-miterlimit:10" /><path
           stroke-miterlimit="10"
           d="M 53.267,5.14 C 53.969,4.757 54.32,4.565 55.023,4.182"
           id="path176"
           inkscape:connector-curvature="0"
           style="fill:none;stroke:#000000;stroke-width:2;stroke-miterlimit:10" /><path
           stroke-miterlimit="10"
           d="m 48,16.167 c 1.404,0.767 2.107,1.15 3.511,1.917"
           id="path178"
           inkscape:connector-curvature="0"
           style="fill:none;stroke:#000000;stroke-width:2;stroke-miterlimit:10" /><path
           stroke-miterlimit="10"
           d="m 53.267,19.042 c 0.702,0.383 1.053,0.575 1.756,0.958"
           id="path180"
           inkscape:connector-curvature="0"
           style="fill:none;stroke:#000000;stroke-width:2;stroke-miterlimit:10" /></g><path
         stroke-miterlimit="10"
         d="m 19.02,51 -6.04,0 C 11.886,51 11,50.114 11,49.02 l 0,-0.04 C 11,47.886 11.886,47 12.98,47 l 6.04,0 c 1.094,0 1.98,0.886 1.98,1.98 l 0,0.04 C 21,50.114 20.114,51 19.02,51 Z"
         id="path182"
         inkscape:connector-curvature="0"
         style="fill:none;stroke:#000000;stroke-width:2;stroke-miterlimit:10" /><path
         stroke-miterlimit="10"
         d="m 51.02,51 -6.04,0 C 43.886,51 43,50.114 43,49.02 l 0,-0.04 C 43,47.886 43.886,47 44.98,47 l 6.04,0 c 1.094,0 1.98,0.886 1.98,1.98 l 0,0.04 C 53,50.114 52.114,51 51.02,51 Z"
         id="path184"
         inkscape:connector-curvature="0"
         style="fill:none;stroke:#000000;stroke-width:2;stroke-miterlimit:10" /><path
         stroke-miterlimit="10"
         d="m 35.02,25 -6.04,0 C 27.886,25 27,24.114 27,23.02 l 0,-0.04 C 27,21.886 27.886,21 28.98,21 l 6.04,0 c 1.094,0 1.98,0.886 1.98,1.98 l 0,0.04 C 37,24.114 36.114,25 35.02,25 Z"
         id="path186"
         inkscape:connector-curvature="0"
         style="fill:none;stroke:#000000;stroke-width:2;stroke-miterlimit:10" /><line
         stroke-miterlimit="10"
         x1="21"
         y1="57"
         x2="25"
         y2="57"
         id="line188"
         style="fill:none;stroke:#000000;stroke-width:2;stroke-miterlimit:10" /><line
         stroke-miterlimit="10"
         x1="37"
         y1="31"
         x2="41"
         y2="31"
         id="line190"
         style="fill:none;stroke:#000000;stroke-width:2;stroke-miterlimit:10" /><line
         stroke-miterlimit="10"
         x1="53"
         y1="57"
         x2="57"
         y2="57"
         id="line192"
         style="fill:none;stroke:#000000;stroke-width:2;stroke-miterlimit:10" /></g></g></svg>