<svg xmlns="http://www.w3.org/2000/svg" xmlns:xlink="http://www.w3.org/1999/xlink" version="1.1" x="0px" y="0px" viewBox="0 0 100 100" style="enable-background:new 0 0 100 100;" xml:space="preserve"><g><path d="M84,19H16c-5.5,0-10,4.5-10,10v42c0,5.5,4.5,10,10,10h68c5.5,0,10-4.5,10-10V29C94,23.5,89.5,19,84,19z M90,71   c0,3.3-2.7,6-6,6H16c-3.3,0-6-2.7-6-6V48h80V71z M90,34H10v-5c0-3.3,2.7-6,6-6h68c3.3,0,6,2.7,6,6V34z"/><rect x="17.9" y="54.5" width="17.7" height="5"/><rect x="17.9" y="63.5" width="32.7" height="5"/></g></svg>