<svg xmlns="http://www.w3.org/2000/svg" xmlns:xlink="http://www.w3.org/1999/xlink" version="1.1" x="0px" y="0px" viewBox="0 0 100 100" style="enable-background:new 0 0 100 100;" xml:space="preserve"><path d="M79.5,8H20.5c-1.1,0-2,0.9-2,2v78.5c0,0.7,0.4,1.4,1,1.8c0.6,0.3,1.4,0.3,2-0.1l12.9-8.3l14,5.5c0.5,0.2,1,0.2,1.5,0  l9.9-4.1l18.9,8.5c0.3,0.1,0.5,0.2,0.8,0.2c0.4,0,0.8-0.1,1.1-0.3c0.6-0.4,0.9-1,0.9-1.7V10C81.5,8.9,80.7,8,79.5,8z M77.5,86.9  l-16.9-7.6c-0.3-0.1-0.5-0.2-0.8-0.2c-0.3,0-0.5,0-0.8,0.2l-10,4.1l-14.2-5.6c-0.6-0.2-1.3-0.2-1.8,0.2l-10.6,6.9V12h55.1V86.9z   M31.9,20.5c0-1.1,0.9-2,2-2h32.2c1.1,0,2,0.9,2,2s-0.9,2-2,2H33.9C32.8,22.5,31.9,21.6,31.9,20.5z M31.9,34.6c0-1.1,0.9-2,2-2h32.2  c1.1,0,2,0.9,2,2s-0.9,2-2,2H33.9C32.8,36.6,31.9,35.7,31.9,34.6z M31.9,48.7c0-1.1,0.9-2,2-2h32.2c1.1,0,2,0.9,2,2c0,1.1-0.9,2-2,2  H33.9C32.8,50.7,31.9,49.8,31.9,48.7z M51,68c0,1.1-0.9,2-2,2H34c-1.1,0-2-0.9-2-2s0.9-2,2-2h15C50.1,66,51,66.9,51,68z"/></svg>