<?xml version="1.0" encoding="UTF-8" standalone="no"?>
<svg
   xmlns:dc="http://purl.org/dc/elements/1.1/"
   xmlns:cc="http://creativecommons.org/ns#"
   xmlns:rdf="http://www.w3.org/1999/02/22-rdf-syntax-ns#"
   xmlns:svg="http://www.w3.org/2000/svg"
   xmlns="http://www.w3.org/2000/svg"
   xmlns:sodipodi="http://sodipodi.sourceforge.net/DTD/sodipodi-0.dtd"
   xmlns:inkscape="http://www.inkscape.org/namespaces/inkscape"
   version="1.1"
   x="0px"
   y="0px"
   viewBox="0 0 64 64"
   enable-background="new 0 0 100 100"
   xml:space="preserve"
   id="svg2"
   inkscape:version="0.91 r13725"
   sodipodi:docname="noun_1630902_cc.svg"
   width="64"
   height="64"><metadata
     id="metadata48"><rdf:RDF><cc:Work
         rdf:about=""><dc:format>image/svg+xml</dc:format><dc:type
           rdf:resource="http://purl.org/dc/dcmitype/StillImage" /><dc:title></dc:title></cc:Work></rdf:RDF></metadata><defs
     id="defs46" /><sodipodi:namedview
     pagecolor="#ffffff"
     bordercolor="#666666"
     borderopacity="1"
     objecttolerance="10"
     gridtolerance="10"
     guidetolerance="10"
     inkscape:pageopacity="0"
     inkscape:pageshadow="2"
     inkscape:window-width="1012"
     inkscape:window-height="659"
     id="namedview44"
     showgrid="false"
     inkscape:zoom="3.776"
     inkscape:cx="69.642979"
     inkscape:cy="61.35414"
     inkscape:window-x="0"
     inkscape:window-y="0"
     inkscape:window-maximized="0"
     inkscape:current-layer="svg2" /><g
     id="g4"
     transform="matrix(0.62842039,0,0,0.72254351,0.04318017,-12.027034)"><path
       d="m 89.696831,44.910831 c -0.291,-0.58 -0.886,-0.697 -1.535,-0.697 l -3.437,0 -17.181,0 0,-14.246 c 0,-4.737 -3.854,-8.089 -8.592,-8.089 l -17.18,0 c -4.736,0 -8.591,3.352 -8.591,8.089 l 0,14.246 -17.181,0 -3.437,0 c -0.652,0 -1.246,0.117 -1.538,0.697 l -8.5900005,17.056 c -0.266,0.532 -0.236,1.352 0.077,1.86 0.312,0.508 0.865,1.004 1.461,1.004 l 6.8730005,0 0,25.27 c 0,4.735 3.854,9.092 8.591,9.092 l 13.745,0 13.746,0 20.618,0 13.744,0 c 4.736,0 8.591,-4.355 8.591,-9.092 l 0,-25.27 6.873,0 c 0.596,0 1.146,-0.562 1.462,-1.067 0.311,-0.507 0.34,-1.14 0.074,-1.671 l -8.593,-17.182 z m -53.08,-14.944 c 0,-2.844 2.312,-4.653 5.154,-4.653 l 17.182,0 c 2.844,0 5.154,1.809 5.154,4.653 l 0,14.246 -6.916,0 c 1.09,-1.718 1.762,-3.212 1.762,-5.155 0,-0.95 -0.77,-1.718 -1.718,-1.718 l -13.746,0 c -0.948,0 -1.718,0.768 -1.718,1.718 0,1.942 0.672,3.437 1.763,5.155 l -6.917,0 0,-14.246 z m 18.603,10.811 c -0.71,1.718 -2.62,3.438 -4.861,3.438 -2.239,0 -4.149,-1.718 -4.859,-3.438 l 9.72,0 z m -48.4680005,20.617 6.8730005,-13.746 2.374,0 18.899,0 29.865,0 -6.873,13.746 -51.1380005,0 z m 41.8910005,34.362 -17.182,0 -12.027,0 c -2.842,0 -5.154,-2.814 -5.154,-5.656 l 0,-25.27 44.67,0 c 0.651,0 1.246,-0.619 1.535,-1.201 l 5.338,-10.922 0.002,43.049 -17.182,0 z m 37.799,-5.656 c 0,2.842 -2.313,5.656 -5.153,5.656 l -12.029,0 0,-43.049 5.335,10.922 c 0.294,0.582 0.887,1.201 1.538,1.201 l 10.309,0 0,25.27 z m -9.247,-28.706 -6.873,-13.746 14.402,0 2.374,0 6.872,13.746 -16.775,0 z"
       id="path18"
       inkscape:connector-curvature="0" /><circle
       cx="44.941002"
       cy="31.42"
       r="1.7180001"
       id="circle20" /><circle
       cx="55.25"
       cy="31.42"
       r="1.7180001"
       id="circle22" /></g></svg>