<svg xmlns="http://www.w3.org/2000/svg" xmlns:xlink="http://www.w3.org/1999/xlink" version="1.1" x="0px" y="0px" viewBox="10 10 80 80" enable-background="#000000 new 0 0 100 100" xml:space="preserve"><path fill="#000000" d="M62.188,70.625c0-6.323,2.677-11.23,5.51-16.426c2.823-5.173,5.74-10.521,5.74-17.324  c0-12.924-10.514-23.438-23.438-23.438S26.562,23.951,26.562,36.875c0,6.802,2.917,12.151,5.74,17.324  c2.833,5.196,5.51,10.104,5.51,16.426c0,0.518,0.419,0.938,0.938,0.938h22.5C61.769,71.562,62.188,71.143,62.188,70.625z   M33.947,53.301c-2.833-5.196-5.51-10.104-5.51-16.426c0-9.274,5.897-17.177,14.13-20.215c0.397,1.031,0.791,1.939,1.176,2.743  l-2.099,4.652c-0.212,0.471-0.002,1.025,0.471,1.24c0.125,0.057,0.255,0.083,0.385,0.083c0.357,0,0.697-0.205,0.855-0.553  l1.494-3.312c0.716,1.237,1.39,2.188,1.99,3.034c0.854,1.205,1.528,2.157,2.036,3.496c0.227,0.601,0.314,1.738,0.406,2.942  c0.148,1.919,0.331,4.309,1.157,6.489c0.143,0.375,0.498,0.606,0.877,0.606c0.11,0,0.224-0.021,0.332-0.061  c0.484-0.183,0.729-0.725,0.545-1.208c-0.73-1.93-0.902-4.171-1.042-5.971c-0.105-1.401-0.199-2.609-0.521-3.461  c-0.004-0.011-0.009-0.018-0.013-0.029c0.285,0.041,0.571,0.096,0.855,0.096c1.627,0,3.288-0.628,5.625-1.513  c0.484-0.183,0.729-0.725,0.545-1.208c-0.185-0.485-0.729-0.725-1.208-0.545c-3.454,1.311-4.891,1.854-6.953,0.926  c-0.346-0.551-0.714-1.081-1.113-1.643c-1.195-1.685-2.547-3.604-4.01-7.375c1.802-0.489,3.687-0.774,5.642-0.774  c11.889,0,21.562,9.673,21.562,21.562c0,6.323-2.677,11.23-5.51,16.426c-2.141,3.922-4.312,7.956-5.25,12.636H39.197  C38.26,61.257,36.088,57.224,33.947,53.301z M39.669,69.688c-0.025-0.641-0.093-1.26-0.168-1.875h20.998  c-0.075,0.615-0.143,1.234-0.168,1.875H39.669z"/><path fill="#000000" d="M59.375,73.438h-18.75c-0.519,0-0.938,0.419-0.938,0.938s0.419,0.938,0.938,0.938h18.75  c0.519,0,0.938-0.419,0.938-0.938S59.894,73.438,59.375,73.438z"/><path fill="#000000" d="M60.312,78.125c0-0.518-0.419-0.938-0.938-0.938h-18.75c-0.519,0-0.938,0.419-0.938,0.938  s0.419,0.938,0.938,0.938h18.75C59.894,79.062,60.312,78.643,60.312,78.125z"/><path fill="#000000" d="M42.5,80.879c-0.519,0-0.938,0.419-0.938,0.938c0,4.746,6.173,4.746,8.496,4.746s8.496,0,8.496-4.746  c0-0.518-0.419-0.938-0.938-0.938H42.5z M50.059,84.688c-4.533,0-6.021-0.877-6.456-1.934h12.912  C56.079,83.811,54.592,84.688,50.059,84.688z"/><path fill="#000000" d="M41.562,44.375c0,0.518,0.419,0.938,0.938,0.938h8.438v2.812c0,2.067,1.681,3.75,3.75,3.75  s3.75-1.683,3.75-3.75v-3.75c0-0.518-0.419-0.938-0.938-0.938h-15C41.981,43.438,41.562,43.857,41.562,44.375z M54.688,50  c-1.033,0-1.875-0.84-1.875-1.875v-2.812h3.75v2.812C56.562,49.16,55.721,50,54.688,50z"/><path fill="#000000" d="M39.413,39.413l1.212-1.212l1.212,1.212c0.184,0.183,0.423,0.274,0.663,0.274s0.479-0.092,0.663-0.274  c0.366-0.366,0.366-0.96,0-1.326l-1.212-1.212l1.212-1.212c0.366-0.366,0.366-0.96,0-1.326s-0.96-0.366-1.326,0l-1.212,1.212  l-1.212-1.212c-0.366-0.366-0.96-0.366-1.326,0s-0.366,0.96,0,1.326l1.212,1.212l-1.212,1.212c-0.366,0.366-0.366,0.96,0,1.326  c0.184,0.183,0.423,0.274,0.663,0.274S39.229,39.596,39.413,39.413z"/><path fill="#000000" d="M56.837,39.413c0.184,0.183,0.423,0.274,0.663,0.274s0.479-0.092,0.663-0.274l1.212-1.212l1.212,1.212  c0.184,0.183,0.423,0.274,0.663,0.274s0.479-0.092,0.663-0.274c0.366-0.366,0.366-0.96,0-1.326l-1.212-1.212l1.212-1.212  c0.366-0.366,0.366-0.96,0-1.326s-0.96-0.366-1.326,0l-1.212,1.212l-1.212-1.212c-0.366-0.366-0.96-0.366-1.326,0  s-0.366,0.96,0,1.326l1.212,1.212l-1.212,1.212C56.471,38.453,56.471,39.047,56.837,39.413z"/></svg>