<?xml version="1.0" encoding="UTF-8" standalone="no"?>
<svg
   xmlns:dc="http://purl.org/dc/elements/1.1/"
   xmlns:cc="http://creativecommons.org/ns#"
   xmlns:rdf="http://www.w3.org/1999/02/22-rdf-syntax-ns#"
   xmlns:svg="http://www.w3.org/2000/svg"
   xmlns="http://www.w3.org/2000/svg"
   xmlns:sodipodi="http://sodipodi.sourceforge.net/DTD/sodipodi-0.dtd"
   xmlns:inkscape="http://www.inkscape.org/namespaces/inkscape"
   version="1.1"
   x="0px"
   y="0px"
   viewBox="0 0 64 64"
   enable-background="new 0 0 100 100"
   xml:space="preserve"
   id="svg2"
   inkscape:version="0.91 r13725"
   sodipodi:docname="noun_943303_cc.svg"
   width="64"
   height="64"><metadata
     id="metadata36"><rdf:RDF><cc:Work
         rdf:about=""><dc:format>image/svg+xml</dc:format><dc:type
           rdf:resource="http://purl.org/dc/dcmitype/StillImage" /><dc:title></dc:title></cc:Work></rdf:RDF></metadata><defs
     id="defs34" /><sodipodi:namedview
     pagecolor="#ffffff"
     bordercolor="#666666"
     borderopacity="1"
     objecttolerance="10"
     gridtolerance="10"
     guidetolerance="10"
     inkscape:pageopacity="0"
     inkscape:pageshadow="2"
     inkscape:window-width="1255"
     inkscape:window-height="657"
     id="namedview32"
     showgrid="false"
     inkscape:zoom="3.776"
     inkscape:cx="11.599576"
     inkscape:cy="62.5"
     inkscape:window-x="0"
     inkscape:window-y="0"
     inkscape:window-maximized="0"
     inkscape:current-layer="svg2" /><g
     display="none"
     id="g4"
     style="display:none"
     transform="translate(0,-61)"><rect
       x="-540.87701"
       y="-37.172001"
       display="inline"
       width="1370.931"
       height="1263.231"
       id="rect6"
       style="display:inline;fill:#000000" /></g><g
     display="none"
     id="g8"
     style="display:none;opacity:0.31000001"
     transform="translate(0,-61)"><g
       display="inline"
       id="g10"
       style="display:inline"><path
         d="m 16.754,58.341 6.597,4.398 -0.078,0.045 2.098,1.302 0.758,0.506 0.029,-0.017 14.119,8.759 c 2.942,1.825 6.301,2.736 9.659,2.736 3.44,0 6.88,-0.957 9.869,-2.866 l 23.384,-14.941 1.577,2.247 10.321,-7.245 -20.588,-29.333 -10.321,7.245 3.172,4.519 -14.606,0 -2.913,3.241 -4.766,-3.241 -12.415,0 3.172,-4.519 -10.321,-7.245 -20.589,29.331 10.321,7.245 1.521,-2.167 z M 73.767,28.11 90.909,52.531 85.498,56.329 68.356,31.908 73.767,28.11 Z m -19.686,10.585 15.374,0 12.009,17.108 -23.274,14.871 c -4.939,3.156 -11.349,3.2 -16.331,0.109 l -12.767,-7.92 5.652,-3.297 10.693,-6.238 2.28,1.217 c 5.967,3.182 13.187,2.107 17.969,-2.674 l 1.282,-1.282 -14.633,-9.95 1.746,-1.944 z m -9.939,0 18.027,12.258 c -3.764,2.79 -8.797,3.207 -13.04,0.944 l -3.758,-2.004 -19.135,11.163 -7.729,-5.153 0.1,-0.201 11.938,-17.007 13.597,0 z M 9.091,52.531 26.233,28.11 31.644,31.908 14.502,56.329 9.091,52.531 Z"
         id="path12"
         inkscape:connector-curvature="0" /></g></g><g
     id="g14"
     transform="matrix(0.6969162,0,0,0.70062592,-2.9866996,-4.5851725)"><path
       d="m 22.568,57.759 c 6.177,0 11.201,-5.025 11.201,-11.202 0,-6.177 -5.025,-11.201 -11.201,-11.201 -6.176,0 -11.202,5.024 -11.202,11.201 0,6.177 5.025,11.202 11.202,11.202 z m 0,-17.69 c 3.578,0 6.488,2.91 6.488,6.488 0,3.578 -2.91,6.488 -6.488,6.488 -3.578,0 -6.488,-2.911 -6.488,-6.488 0,-3.577 2.91,-6.488 6.488,-6.488 z"
       id="path16"
       inkscape:connector-curvature="0" /><path
       d="m 9.714,74.243 c 0,-4.813 3.915,-8.728 8.728,-8.728 l 8.251,0 c 0.247,0 0.492,0.01 0.734,0.031 0.683,0.059 1.361,-0.17 1.857,-0.626 0.483,-0.445 0.75,-1.053 0.75,-1.712 0,-1.202 -0.92,-2.233 -2.096,-2.346 -0.41,-0.039 -0.825,-0.06 -1.245,-0.06 l -8.251,0 C 11.03,60.801 5,66.831 5,74.243 l 0,0.969 4.714,0 0,-0.969 z"
       id="path18"
       inkscape:connector-curvature="0" /><path
       d="m 30.87,75.211 4.714,0 0,-5.803 c 0,-5.44 4.426,-9.866 9.867,-9.866 l 9.099,0 c 5.44,0 9.867,4.426 9.867,9.866 l 0,5.803 4.714,0 0,-5.803 c 0,-4.921 -2.471,-9.48 -6.61,-12.194 -2.38,-1.561 -5.136,-2.386 -7.97,-2.386 l -9.099,0 c -4.503,0 -8.688,2.05 -11.482,5.624 -2.027,2.593 -3.098,5.69 -3.098,8.956 l 0,5.803 z"
       id="path20"
       inkscape:connector-curvature="0" /><path
       d="m 81.558,60.801 -8.251,0 c -0.231,0 -0.46,0.007 -0.688,0.019 -1.271,0.07 -2.267,1.107 -2.267,2.362 0,0.648 0.269,1.273 0.739,1.716 0.473,0.445 1.092,0.668 1.736,0.631 0.159,-0.01 0.319,-0.014 0.48,-0.014 l 8.251,0 c 4.813,0 8.728,3.915 8.728,8.728 l 0,0.969 4.714,0 0,-0.969 C 95,66.831 88.97,60.801 81.558,60.801 Z"
       id="path22"
       inkscape:connector-curvature="0" /><path
       d="m 77.432,57.759 c 6.177,0 11.202,-5.025 11.202,-11.202 0,-6.177 -5.025,-11.201 -11.202,-11.201 -6.177,0 -11.202,5.024 -11.202,11.201 0,6.177 5.026,11.202 11.202,11.202 z m 0,-17.69 c 3.578,0 6.488,2.91 6.488,6.488 0,3.578 -2.911,6.488 -6.488,6.488 -3.577,0 -6.488,-2.911 -6.488,-6.488 0,-3.577 2.911,-6.488 6.488,-6.488 z"
       id="path24"
       inkscape:connector-curvature="0" /><path
       d="m 50,52.971 c 7.769,0 14.091,-6.321 14.091,-14.091 0,-7.77 -6.321,-14.091 -14.091,-14.091 -7.77,0 -14.091,6.321 -14.091,14.091 0,7.769 6.321,14.091 14.091,14.091 z m 0,-23.469 c 5.17,0 9.377,4.207 9.377,9.378 0,5.17 -4.207,9.377 -9.377,9.377 -5.171,0 -9.378,-4.207 -9.378,-9.377 0,-5.171 4.207,-9.378 9.378,-9.378 z"
       id="path26"
       inkscape:connector-curvature="0" /></g></svg>